<?xml version="1.0" encoding="UTF-8" standalone="no"?>
<!-- Created with Inkscape (http://www.inkscape.org/) -->

<svg
   xmlns:dc="http://purl.org/dc/elements/1.1/"
   xmlns:cc="http://creativecommons.org/ns#"
   xmlns:rdf="http://www.w3.org/1999/02/22-rdf-syntax-ns#"
   xmlns:svg="http://www.w3.org/2000/svg"
   xmlns="http://www.w3.org/2000/svg"
   xmlns:xlink="http://www.w3.org/1999/xlink"
   xmlns:sodipodi="http://sodipodi.sourceforge.net/DTD/sodipodi-0.dtd"
   xmlns:inkscape="http://www.inkscape.org/namespaces/inkscape"
   width="639.28571"
   height="702.14282"
   id="svg2"
   version="1.1"
   inkscape:version="0.48.4 r9939"
   sodipodi:docname="Character.svg">
  <defs
     id="defs4">
    <linearGradient
       id="linearGradient3939">
      <stop
         style="stop-color:#000000;stop-opacity:1;"
         offset="0"
         id="stop3941" />
      <stop
         style="stop-color:#0b332d;stop-opacity:1;"
         offset="1"
         id="stop3943" />
    </linearGradient>
    <linearGradient
       id="linearGradient3813">
      <stop
         style="stop-color:#80ffe6;stop-opacity:1;"
         offset="0"
         id="stop3815" />
      <stop
         style="stop-color:#80ffe6;stop-opacity:0;"
         offset="1"
         id="stop3817" />
    </linearGradient>
    <linearGradient
       id="linearGradient3795">
      <stop
         style="stop-color:#ffb380;stop-opacity:1;"
         offset="0"
         id="stop3797" />
      <stop
         style="stop-color:#e66a44;stop-opacity:1;"
         offset="1"
         id="stop3799" />
    </linearGradient>
    <radialGradient
       inkscape:collect="always"
       xlink:href="#linearGradient3795"
       id="radialGradient3803"
       cx="410"
       cy="533.79077"
       fx="410"
       fy="533.79077"
       r="219.64285"
       gradientUnits="userSpaceOnUse" />
    <radialGradient
       inkscape:collect="always"
       xlink:href="#linearGradient3795"
       id="radialGradient3811"
       cx="244.28572"
       cy="740.93359"
       fx="244.28572"
       fy="740.93359"
       r="68.214287"
       gradientUnits="userSpaceOnUse" />
    <radialGradient
       inkscape:collect="always"
       xlink:href="#linearGradient3795"
       id="radialGradient3819"
       cx="244.28572"
       cy="740.93359"
       fx="244.28572"
       fy="740.93359"
       r="68.214287"
       gradientUnits="userSpaceOnUse" />
    <radialGradient
       inkscape:collect="always"
       xlink:href="#linearGradient3795-2"
       id="radialGradient3811-8"
       cx="244.28572"
       cy="740.93359"
       fx="244.28572"
       fy="740.93359"
       r="68.214287"
       gradientUnits="userSpaceOnUse" />
    <linearGradient
       id="linearGradient3795-2">
      <stop
         style="stop-color:#80ffe6;stop-opacity:1;"
         offset="0"
         id="stop3797-7" />
      <stop
         style="stop-color:#44e1e6;stop-opacity:1;"
         offset="1"
         id="stop3799-7" />
    </linearGradient>
    <radialGradient
       r="68.214287"
       fy="740.93359"
       fx="244.28572"
       cy="740.93359"
       cx="244.28572"
       gradientUnits="userSpaceOnUse"
       id="radialGradient3884"
       xlink:href="#linearGradient3795"
       inkscape:collect="always" />
    <radialGradient
       r="68.214287"
       fy="740.93359"
       fx="244.28572"
       cy="740.93359"
       cx="244.28572"
       gradientUnits="userSpaceOnUse"
       id="radialGradient3884-6"
       xlink:href="#linearGradient3795-2-0"
       inkscape:collect="always" />
    <linearGradient
       id="linearGradient3795-2-0">
      <stop
         style="stop-color:#80ffe6;stop-opacity:1;"
         offset="0"
         id="stop3797-7-4" />
      <stop
         style="stop-color:#44e1e6;stop-opacity:1;"
         offset="1"
         id="stop3799-7-9" />
    </linearGradient>
    <radialGradient
       r="68.214287"
       fy="740.93359"
       fx="244.28572"
       cy="740.93359"
       cx="244.28572"
       gradientUnits="userSpaceOnUse"
       id="radialGradient3918"
       xlink:href="#linearGradient3795"
       inkscape:collect="always" />
    <radialGradient
       inkscape:collect="always"
       xlink:href="#linearGradient3939"
       id="radialGradient3945"
       cx="316.07144"
       cy="436.42853"
       fx="316.07144"
       fy="436.42853"
       r="109.92857"
       gradientTransform="matrix(1,0,0,0.4054581,0,259.47505)"
       gradientUnits="userSpaceOnUse" />
  </defs>
  <sodipodi:namedview
     id="base"
     pagecolor="#ffffff"
     bordercolor="#666666"
     borderopacity="1.0"
     inkscape:pageopacity="0.0"
     inkscape:pageshadow="2"
     inkscape:zoom="1.4"
     inkscape:cx="282.93857"
     inkscape:cy="380.53461"
     inkscape:document-units="px"
     inkscape:current-layer="layer1"
     showgrid="false"
     inkscape:window-width="1920"
     inkscape:window-height="1017"
     inkscape:window-x="-8"
     inkscape:window-y="-8"
     inkscape:window-maximized="1"
     fit-margin-top="100"
     fit-margin-left="100"
     fit-margin-right="100"
     fit-margin-bottom="100" />
  <metadata
     id="metadata7">
    <rdf:RDF>
      <cc:Work
         rdf:about="">
        <dc:format>image/svg+xml</dc:format>
        <dc:type
           rdf:resource="http://purl.org/dc/dcmitype/StillImage" />
        <dc:title></dc:title>
      </cc:Work>
    </rdf:RDF>
  </metadata>
  <g
     inkscape:label="Ebene 1"
     inkscape:groupmode="layer"
     id="layer1"
     transform="translate(-50.357147,-187.00506)">
    <path
       sodipodi:type="arc"
       style="fill:url(#radialGradient3811);fill-opacity:1;stroke:#ffffff;stroke-width:5;stroke-miterlimit:4;stroke-opacity:1;stroke-dasharray:none"
       id="path3755"
       sodipodi:cx="244.28572"
       sodipodi:cy="740.93359"
       sodipodi:rx="65.714287"
       sodipodi:ry="65.714287"
       d="m 310.00001,740.93359 c 0,36.293 -29.42129,65.71429 -65.71429,65.71429 -36.293,0 -65.71429,-29.42129 -65.71429,-65.71429 0,-36.29299 29.42129,-65.71428 65.71429,-65.71428 36.293,0 65.71429,29.42129 65.71429,65.71428 z"
       transform="matrix(1.4397906,0,0,1.4397906,-93.148841,-375.8556)" />
    <path
       sodipodi:type="arc"
       style="fill:url(#radialGradient3819);fill-opacity:1;stroke:#ffffff;stroke-width:5;stroke-miterlimit:4;stroke-opacity:1;stroke-dasharray:none"
       id="path3755-1"
       sodipodi:cx="244.28572"
       sodipodi:cy="740.93359"
       sodipodi:rx="65.714287"
       sodipodi:ry="65.714287"
       d="m 310.00001,740.93359 c 0,36.293 -29.42129,65.71429 -65.71429,65.71429 -36.293,0 -65.71429,-29.42129 -65.71429,-65.71429 0,-36.29299 29.42129,-65.71428 65.71429,-65.71428 36.293,0 65.71429,29.42129 65.71429,65.71428 z"
       transform="matrix(1.4397906,0,0,1.4397906,126.85115,-377.28418)" />
    <path
       sodipodi:type="arc"
       style="fill:url(#radialGradient3803);fill-opacity:1;fill-rule:evenodd;stroke:#ffffff;stroke-width:5;stroke-linecap:butt;stroke-linejoin:miter;stroke-miterlimit:4;stroke-opacity:1;stroke-dasharray:none"
       id="path3753"
       sodipodi:cx="410"
       sodipodi:cy="533.79077"
       sodipodi:rx="217.14285"
       sodipodi:ry="217.14285"
       d="m 627.14285,533.79077 c 0,119.92469 -97.21816,217.14285 -217.14285,217.14285 -119.92469,0 -217.14285,-97.21816 -217.14285,-217.14285 0,-119.92468 97.21816,-217.14285 217.14285,-217.14285 119.92469,0 217.14285,97.21817 217.14285,217.14285 z"
       transform="translate(-40,-27.142857)" />
    <path
       sodipodi:type="arc"
       style="fill:#e66a44;stroke:#ffffff;stroke-width:5;stroke-miterlimit:4;stroke-opacity:1;stroke-dasharray:none;fill-opacity:1"
       id="path3775"
       sodipodi:cx="319.28571"
       sodipodi:cy="457.36218"
       sodipodi:rx="55"
       sodipodi:ry="55"
       d="m 374.28571,457.36218 c 0,30.37566 -24.62434,55 -55,55 -30.37567,0 -55,-24.62434 -55,-55 0,-30.37566 24.62433,-55 55,-55 30.37566,0 55,24.62434 55,55 z"
       transform="translate(-34.704133,-40.346629)" />
    <path
       sodipodi:type="arc"
       style="fill:#e66a44;stroke:#ffffff;stroke-width:5;stroke-miterlimit:4;stroke-opacity:1;stroke-dasharray:none;fill-opacity:1"
       id="path3775-7"
       sodipodi:cx="319.28571"
       sodipodi:cy="457.36218"
       sodipodi:rx="55"
       sodipodi:ry="55"
       d="m 374.28571,457.36218 c 0,30.37566 -24.62434,55 -55,55 -30.37567,0 -55,-24.62434 -55,-55 0,-30.37566 24.62433,-55 55,-55 30.37566,0 55,24.62434 55,55 z"
       transform="translate(136.42858,-37.857143)" />
    <path
       sodipodi:type="arc"
       style="fill:#000000;fill-rule:evenodd;stroke:#ffffff;stroke-width:2;stroke-miterlimit:4;stroke-opacity:1;stroke-dasharray:none"
       id="path3821"
       sodipodi:cx="289.91379"
       sodipodi:cy="422.02701"
       sodipodi:rx="29.294424"
       sodipodi:ry="29.294424"
       d="m 319.20821,422.02701 c 0,16.17886 -13.11556,29.29442 -29.29442,29.29442 -16.17887,0 -29.29443,-13.11556 -29.29443,-29.29442 0,-16.17887 13.11556,-29.29443 29.29443,-29.29443 16.17886,0 29.29442,13.11556 29.29442,29.29443 z"
       transform="translate(-5.0507627,-11.616754)" />
    <path
       sodipodi:type="arc"
       style="fill:#000000;fill-rule:evenodd;stroke:#ffffff;stroke-width:2;stroke-miterlimit:4;stroke-opacity:1;stroke-dasharray:none"
       id="path3821-6"
       sodipodi:cx="289.91379"
       sodipodi:cy="422.02701"
       sodipodi:rx="29.294424"
       sodipodi:ry="29.294424"
       d="m 319.20821,422.02701 c 0,16.17886 -13.11556,29.29442 -29.29442,29.29442 -16.17887,0 -29.29443,-13.11556 -29.29443,-29.29442 0,-16.17887 13.11556,-29.29443 29.29443,-29.29443 16.17886,0 29.29442,13.11556 29.29442,29.29443 z"
       transform="translate(170.36915,-11.73932)" />
    <path
       sodipodi:type="arc"
       style="fill:#ffffff;fill-rule:evenodd;stroke:#ffffff;stroke-width:2;stroke-miterlimit:4;stroke-opacity:1;stroke-dasharray:none"
       id="path3849"
       sodipodi:cx="293.92856"
       sodipodi:cy="399.86218"
       sodipodi:rx="6.0714288"
       sodipodi:ry="6.0714288"
       d="m 299.99999,399.86218 c 0,3.35316 -2.71827,6.07143 -6.07143,6.07143 -3.35316,0 -6.07143,-2.71827 -6.07143,-6.07143 0,-3.35315 2.71827,-6.07143 6.07143,-6.07143 3.35316,0 6.07143,2.71828 6.07143,6.07143 z" />
    <path
       transform="translate(177.50001,0.35714217)"
       sodipodi:type="arc"
       style="fill:#ffffff;fill-rule:evenodd;stroke:#ffffff;stroke-width:2;stroke-miterlimit:4;stroke-opacity:1;stroke-dasharray:none"
       id="path3849-8"
       sodipodi:cx="293.92856"
       sodipodi:cy="399.86218"
       sodipodi:rx="6.0714288"
       sodipodi:ry="6.0714288"
       d="m 299.99999,399.86218 c 0,3.35316 -2.71827,6.07143 -6.07143,6.07143 -3.35316,0 -6.07143,-2.71827 -6.07143,-6.07143 0,-3.35315 2.71827,-6.07143 6.07143,-6.07143 3.35316,0 6.07143,2.71828 6.07143,6.07143 z" />
    <path
       sodipodi:type="arc"
       style="fill:url(#radialGradient3884);fill-opacity:1.0;stroke:#ffffff;stroke-width:5;stroke-miterlimit:4;stroke-opacity:1;stroke-dasharray:none"
       id="path3755-12"
       sodipodi:cx="244.28572"
       sodipodi:cy="740.93359"
       sodipodi:rx="65.714287"
       sodipodi:ry="65.714287"
       d="m 310.00001,740.93359 a 65.714287,65.714287 0 1 1 -131.42858,0 65.714287,65.714287 0 1 1 131.42858,0 z"
       transform="matrix(1.0209424,0,0,1.0209424,-79.044509,-214.44552)" />
    <path
       sodipodi:type="arc"
       style="fill:url(#radialGradient3918);fill-opacity:1.0;stroke:#ffffff;stroke-width:5;stroke-miterlimit:4;stroke-opacity:1;stroke-dasharray:none"
       id="path3755-12-4"
       sodipodi:cx="244.28572"
       sodipodi:cy="740.93359"
       sodipodi:rx="65.714287"
       sodipodi:ry="65.714287"
       d="m 310.00001,740.93359 a 65.714287,65.714287 0 1 1 -131.42858,0 65.714287,65.714287 0 1 1 131.42858,0 z"
       transform="matrix(1.0209424,0,0,1.0209424,335.9555,-203.73121)" />
    <path
       sodipodi:type="arc"
       style="fill:url(#radialGradient3945);fill-rule:evenodd;stroke:#ffffff;stroke-width:2;stroke-miterlimit:4;stroke-opacity:1;stroke-dasharray:none;fill-opacity:1"
       id="path3937"
       sodipodi:cx="316.07144"
       sodipodi:cy="436.42853"
       sodipodi:rx="108.92857"
       sodipodi:ry="43.57143"
       d="m 425.00002,436.42853 a 108.92857,43.57143 0 1 1 -217.85715,0 108.92857,43.57143 0 1 1 217.85715,0 z"
       transform="matrix(0.80727059,0,0,0.80727059,116.5155,276.09888)" />
  </g>
</svg>
