<?xml version="1.0" encoding="UTF-8" standalone="no"?>
<!-- Created with Inkscape (http://www.inkscape.org/) -->

<svg
   xmlns:osb="http://www.openswatchbook.org/uri/2009/osb"
   xmlns:dc="http://purl.org/dc/elements/1.1/"
   xmlns:cc="http://creativecommons.org/ns#"
   xmlns:rdf="http://www.w3.org/1999/02/22-rdf-syntax-ns#"
   xmlns:svg="http://www.w3.org/2000/svg"
   xmlns="http://www.w3.org/2000/svg"
   xmlns:xlink="http://www.w3.org/1999/xlink"
   xmlns:sodipodi="http://sodipodi.sourceforge.net/DTD/sodipodi-0.dtd"
   xmlns:inkscape="http://www.inkscape.org/namespaces/inkscape"
   width="210mm"
   height="297mm"
   id="svg3947"
   version="1.1"
   inkscape:version="0.48.4 r9939"
   sodipodi:docname="Pew Pew 1.svg">
  <defs
     id="defs3949">
    <linearGradient
       id="linearGradient5965">
      <stop
         style="stop-color:#000000;stop-opacity:1;"
         offset="0"
         id="stop5967" />
      <stop
         style="stop-color:#303030;stop-opacity:1;"
         offset="1"
         id="stop5969" />
    </linearGradient>
    <linearGradient
       id="linearGradient5955"
       osb:paint="solid">
      <stop
         style="stop-color:#000000;stop-opacity:1;"
         offset="0"
         id="stop5957" />
    </linearGradient>
    <linearGradient
       inkscape:collect="always"
       xlink:href="#linearGradient5965"
       id="linearGradient5973"
       x1="271.16013"
       y1="453.68616"
       x2="537.07959"
       y2="453.68616"
       gradientUnits="userSpaceOnUse" />
  </defs>
  <sodipodi:namedview
     id="base"
     pagecolor="#ffffff"
     bordercolor="#666666"
     borderopacity="1.0"
     inkscape:pageopacity="0.0"
     inkscape:pageshadow="2"
     inkscape:zoom="2.8"
     inkscape:cx="354.39048"
     inkscape:cy="553.69733"
     inkscape:document-units="px"
     inkscape:current-layer="layer1"
     showgrid="false"
     inkscape:window-width="1920"
     inkscape:window-height="1017"
     inkscape:window-x="-8"
     inkscape:window-y="-8"
     inkscape:window-maximized="1" />
  <metadata
     id="metadata3952">
    <rdf:RDF>
      <cc:Work
         rdf:about="">
        <dc:format>image/svg+xml</dc:format>
        <dc:type
           rdf:resource="http://purl.org/dc/dcmitype/StillImage" />
        <dc:title></dc:title>
      </cc:Work>
    </rdf:RDF>
  </metadata>
  <g
     inkscape:label="Ebene 1"
     inkscape:groupmode="layer"
     id="layer1">
    <rect
       style="fill:url(#linearGradient5973);fill-opacity:1;fill-rule:evenodd;stroke:#ffffff;stroke-width:0;stroke-miterlimit:4;stroke-opacity:1;stroke-dasharray:none"
       id="rect3955"
       width="265.91943"
       height="66.633728"
       x="271.16013"
       y="420.36929" />
    <rect
       style="fill:#000000;fill-opacity:1;fill-rule:evenodd;stroke:#ffffff;stroke-width:0;stroke-miterlimit:4;stroke-opacity:1;stroke-dasharray:none"
       id="rect3955-6"
       width="58.531147"
       height="122.10259"
       x="271.15472"
       y="471.57956" />
    <path
       style="fill:#000000;fill-opacity:1;fill-rule:evenodd;stroke:#ffffff;stroke-width:0;stroke-miterlimit:4;stroke-opacity:1;stroke-dasharray:none"
       id="path4485"
       d="m 329.6625,538.87159 c 5.5892,0.61034 11.224,0.92464 16.84725,0.74575 2.89983,-0.28425 5.86365,-0.66 8.62478,-1.60554 0.85004,-0.2911 1.6727,-0.6568 2.47135,-1.05855 0.80325,-0.40404 3.12583,-1.76205 2.32478,-1.35402 -4.34875,2.21511 -8.6475,4.51798 -12.97126,6.77699 5.20636,-4.66674 8.30068,-11.02981 11.54919,-16.99406 4.22404,-7.67227 7.30368,-15.57335 9.2005,-24.03156 1.27277,-6.02952 0.51011,-11.98541 -0.68311,-17.93978 -0.54811,-2.91983 -0.29197,-1.49445 -0.77165,-4.2756 0,0 15.80604,-7.95008 15.80604,-7.95008 l 0,0 c 0.41062,2.77298 0.18459,1.35074 0.68322,4.26596 1.12435,6.19593 2.05099,12.36969 0.74262,18.63779 -1.83881,8.54366 -4.83386,16.6875 -9.05608,24.44887 -3.14949,6.07748 -6.22933,12.43089 -10.98714,17.53392 -12.54364,7.34048 -17.77498,12.75591 -31.23763,13.47283 -5.76736,0.0326 -11.53029,-0.27095 -17.27495,-0.75482 0,0 14.73209,-9.9181 14.73209,-9.9181 z"
       inkscape:connector-curvature="0" />
    <path
       style="fill:#000000;fill-opacity:1;fill-rule:evenodd;stroke:#ffffff;stroke-width:0;stroke-miterlimit:4;stroke-opacity:1;stroke-dasharray:none"
       id="path4489"
       d="m 346.20427,475.58197 c 0.40241,2.68618 0.80644,5.37298 1.27247,8.04907 0.41692,2.32097 0.62618,4.66637 0.74324,7.01894 0.0776,1.77651 0.0658,3.55523 0.0692,5.33299 -0.0644,1.70396 0.23078,3.38842 0.65283,5.03148 0.42868,1.6459 0.724,3.32507 1.16562,4.96665 0.14685,0.71872 0.47537,1.3697 0.77807,2.03017 0,0 -9.22892,5.20697 -9.22892,5.20697 l 0,0 c -0.31842,-0.71439 -0.67191,-1.41895 -0.8282,-2.19242 -0.4568,-1.64136 -0.77728,-3.31982 -1.1835,-4.97457 -0.44649,-1.7213 -0.80195,-3.48366 -0.77385,-5.27116 0.008,-1.76877 0.0108,-3.53771 -0.0254,-5.30624 -0.0709,-2.32004 -0.2322,-4.63802 -0.62122,-6.92928 -0.45129,-2.68122 -0.80354,-5.38129 -1.40092,-8.03512 0,0 9.38051,-4.92748 9.38051,-4.92748 z"
       inkscape:connector-curvature="0" />
    <path
       style="fill:none;stroke:#000000;stroke-width:1px;stroke-linecap:butt;stroke-linejoin:miter;stroke-opacity:1"
       d="m 352.14286,539.32647 c -0.0893,0.0298 -0.17598,0.0689 -0.26786,0.0893 -0.0436,0.01 -0.0901,-0.009 -0.13393,0 -0.0326,0.007 -0.0584,0.0323 -0.0893,0.0447 -0.0437,0.0175 -0.0893,0.0298 -0.13393,0.0446 -0.0446,0.0298 -0.0859,0.0653 -0.13393,0.0893 -0.0421,0.021 -0.0931,0.0213 -0.13393,0.0446 -0.0646,0.0369 -0.11202,0.10065 -0.17857,0.13393 -0.0842,0.0421 -0.18047,0.0543 -0.26786,0.0893 -0.0618,0.0247 -0.11776,0.0623 -0.17857,0.0893 -0.0732,0.0325 -0.14998,0.0567 -0.22321,0.0893 -0.0608,0.027 -0.11776,0.0623 -0.17857,0.0893 -0.53631,0.23836 0.011,-0.0133 -0.35715,0.13393 -0.14488,0.058 -0.0301,0.0446 -0.17857,0.0446 -0.0298,0 -0.0627,-0.0133 -0.0893,0 -0.0133,0.007 -0.0105,0.0341 0,0.0446 0.0105,0.0105 0.0298,0 0.0446,0 0.0446,0 0.0893,0 0.13393,0 0.0595,0 0.12114,0.0157 0.17857,0 0.10933,-0.0298 0.20577,-0.0958 0.3125,-0.13393 0.10202,-0.0364 0.20833,-0.0595 0.3125,-0.0893 0.10416,-0.0298 0.20833,-0.0595 0.3125,-0.0893 0.10416,-0.0298 0.20972,-0.055 0.3125,-0.0893 0.27289,-0.091 0.1643,-0.0987 0.44643,-0.13393 0.0591,-0.007 0.11904,0 0.17857,0 0.0149,0 0.0446,-0.0149 0.0446,0 0,0.0706 -0.11649,0.0377 -0.13393,0.0446 -0.0498,0.0199 -0.087,0.0632 -0.13393,0.0893 -0.0873,0.0485 -0.17857,0.0893 -0.26785,0.13393 -0.11905,0.0595 -0.23971,0.11593 -0.35715,0.17857 -0.10586,0.0565 -0.20378,0.12783 -0.3125,0.17857 -0.11521,0.0538 -0.24342,0.0771 -0.35714,0.13393 -0.12556,0.0628 -0.23327,0.15715 -0.35714,0.22321 -0.1,0.0533 -0.20834,0.0893 -0.3125,0.13393 -0.10417,0.0446 -0.20577,0.0958 -0.3125,0.13393 -0.10203,0.0364 -0.20896,0.0574 -0.3125,0.0893 -0.09,0.0277 -0.17557,0.0708 -0.26786,0.0893 -0.0584,0.0117 -0.11986,-0.01 -0.17857,0 -0.16168,0.0269 -0.0319,0.0383 -0.13393,0.0893 -0.13137,0.0657 0.0588,-0.10342 -0.0893,0.0446 -0.0149,0.0149 -0.0298,0.0298 -0.0447,0.0446 -0.0149,0.0149 -0.0258,0.0352 -0.0446,0.0446 -0.0421,0.021 -0.0948,0.0185 -0.13393,0.0446 -0.0124,0.008 0.008,0.0323 0,0.0446 -0.006,0.009 -0.20882,0.21602 -0.22321,0.22321 -0.0421,0.021 -0.0963,0.0164 -0.13393,0.0446 -0.0266,0.02 -0.0211,0.0657 -0.0446,0.0893 -0.0105,0.0105 -0.0313,-0.007 -0.0447,0 -0.11033,0.0552 0.0154,0.0447 -0.0893,0.0447 -0.0149,0 -0.0298,0 -0.0446,0 -0.0149,0 -0.0446,0.0149 -0.0446,0 0,-0.0149 0.0327,0.009 0.0446,0 0.0505,-0.0379 0.0851,-0.094 0.13393,-0.13393 0.11517,-0.0942 0.24094,-0.1749 0.35715,-0.26786 0.10713,-0.0857 0.20274,-0.18554 0.3125,-0.26786 0.12877,-0.0966 0.27129,-0.17361 0.40178,-0.26785 0.13755,-0.0993 0.26605,-0.2107 0.40179,-0.3125 0.18022,-0.13517 0.52898,-0.40811 0.75893,-0.44643 0.044,-0.007 0.0893,0 0.13392,0"
       id="path4497"
       inkscape:connector-curvature="0" />
    <path
       style="fill:none;stroke:#000000;stroke-width:1px;stroke-linecap:butt;stroke-linejoin:miter;stroke-opacity:1"
       d="m 348.21429,540.97825 c -0.69357,0.20807 -0.27017,0.0982 -1.16072,0.26786 -0.0745,0.0142 -0.1481,0.0339 -0.22321,0.0446 -0.0295,0.004 -0.0893,0.0298 -0.0893,0 0,-0.0298 0.0638,0.0153 0.0893,0 0.0541,-0.0325 0.0867,-0.092 0.13393,-0.13393 0.0869,-0.0772 0.17009,-0.16036 0.26785,-0.22321 0.1192,-0.0766 0.64188,-0.30894 0.75893,-0.35714 0.34595,-0.14245 0.70829,-0.26636 1.07143,-0.35715 0.40192,-0.10048 0.0401,4.6e-4 0.49107,-0.0446 0.55471,-0.0555 -0.12495,-0.0446 0.3125,-0.0446 0.0595,0 0.11904,0 0.17857,0 0.0149,0 0.0446,-0.0149 0.0446,0 0,0.0149 -0.0298,0 -0.0446,0"
       id="path4499"
       inkscape:connector-curvature="0" />
    <path
       style="fill:none;stroke:#000000;stroke-width:1px;stroke-linecap:butt;stroke-linejoin:miter;stroke-opacity:1"
       d="m 350.40179,539.59432 c 0.0595,-0.0744 0.10622,-0.1612 0.17857,-0.22321 0.0357,-0.0306 0.0899,-0.0281 0.13393,-0.0446 0.075,-0.0281 0.14881,-0.0595 0.22321,-0.0893 0.0744,-0.0298 0.15154,-0.0534 0.22322,-0.0893 0.0776,-0.0388 0.14166,-0.10428 0.22321,-0.13393 0.0851,-0.0309 0.1795,-0.025 0.26786,-0.0446 0.0459,-0.0102 0.0875,-0.0369 0.13393,-0.0446 0.0734,-0.0122 0.1488,0 0.22321,0 0.0149,0 -0.0308,-0.006 -0.0446,0 -0.0618,0.0247 -0.11905,0.0595 -0.17857,0.0893 -0.0298,0.0149 -0.0633,0.0239 -0.0893,0.0446 -0.0493,0.0394 -0.086,0.0928 -0.13393,0.13393 -0.0565,0.0484 -0.11905,0.0893 -0.17857,0.13393 -0.0595,0.0446 -0.11666,0.0927 -0.17857,0.13393 -0.0722,0.0481 -0.14964,0.0879 -0.22322,0.13392 -0.0843,0.0527 -0.19698,0.15703 -0.3125,0.13393 -0.26969,-0.0539 -0.35714,-0.19629 -0.35714,-0.44643 0,-0.0298 -0.0133,-0.0627 0,-0.0893 0.0188,-0.0376 0.0705,-0.0516 0.0893,-0.0893 0.0133,-0.0266 -0.0179,-0.0655 0,-0.0893 0.0322,-0.0429 0.096,-0.0513 0.13393,-0.0893 0.0235,-0.0235 0.0211,-0.0658 0.0446,-0.0893 0.0105,-0.0105 0.0313,0.007 0.0446,0 0.0188,-0.009 0.0446,-0.0657 0.0446,-0.0447 0,0.18393 -0.18277,0.18487 -0.26785,0.3125 -0.0369,0.0554 -0.0467,0.12745 -0.0893,0.17857 -0.0344,0.0412 -0.0927,0.0549 -0.13393,0.0893 -0.11776,0.0981 -0.0984,0.13696 -0.22321,0.17857 -0.0582,0.0194 -0.12161,0.0219 -0.17857,0.0446 -0.0171,0.007 -0.0923,0.12787 -0.13393,0.0446 -0.0149,-0.0298 0.0211,-0.0658 0.0446,-0.0893 0.009,-0.009 0.25192,-0.12994 0.26786,-0.13393 0.0289,-0.007 0.0611,0.009 0.0893,0 0.02,-0.007 0.0298,-0.0298 0.0446,-0.0446 0.0446,-0.0149 0.0878,-0.0354 0.13393,-0.0446 0.0438,-0.009 0.0893,0 0.13392,0 0.0149,0 0.058,-0.007 0.0446,0 -0.0421,0.021 -0.0902,0.0272 -0.13393,0.0446 -0.0618,0.0247 -0.11905,0.0595 -0.17857,0.0893 -0.0298,0.0149 -0.0577,0.0341 -0.0893,0.0446 -0.0141,0.005 -0.0446,0.0149 -0.0446,0 0,-0.0211 0.0266,-0.0338 0.0446,-0.0446 0.0571,-0.0342 0.12442,-0.0506 0.17857,-0.0893 0.0514,-0.0367 0.0787,-0.10327 0.13393,-0.13393 0.0823,-0.0457 0.18218,-0.0503 0.26786,-0.0893 0.66862,-0.30392 -0.25468,0.0254 0.49107,-0.22322"
       id="path4501"
       inkscape:connector-curvature="0" />
    <path
       style="fill:none;stroke:#000000;stroke-width:1px;stroke-linecap:butt;stroke-linejoin:miter;stroke-opacity:1"
       d="m 352.8125,539.01397 c -0.0893,0.0149 -0.17857,0.0298 -0.26786,0.0446 -0.0446,0 -0.0899,-0.007 -0.13392,0 -0.35257,0.0588 0.0804,0.0446 -0.26786,0.0446 -0.0298,0 -0.0682,0.021 -0.0893,0 -0.0149,-0.0149 0.0282,-0.0315 0.0447,-0.0446 0.12461,-0.0997 0.25864,-0.19629 0.40178,-0.26786 0.0717,-0.0358 0.15026,-0.0561 0.22322,-0.0893 0.28515,-0.12962 0.55187,-0.29596 0.84821,-0.40179 0.61273,-0.21883 0.0274,0.0533 0.58036,-0.22321 0.0595,-0.0298 0.11626,-0.0659 0.17857,-0.0893 0.1191,-0.0447 0.28299,-0.0553 0.40178,-0.0893 0.032,-0.009 0.0577,-0.0341 0.0893,-0.0447 0.0141,-0.005 0.0446,-0.0149 0.0446,0 0,0.021 -0.0298,0.0298 -0.0446,0.0447 -0.0893,0.0893 -0.17857,0.17857 -0.26786,0.26785 -0.0446,0.0447 -0.0893,0.0893 -0.13393,0.13393 -0.0595,0.0595 -0.11283,0.12599 -0.17857,0.17857 -0.23694,0.18956 -0.2779,0.17188 -0.53571,0.3125 -0.1476,0.0805 -0.27595,0.18912 -0.44643,0.22322 -0.073,0.0146 -0.14881,0 -0.22321,0 -0.0744,0 -0.27583,0.0526 -0.22322,0 0.0766,-0.0766 0.20798,-0.0608 0.3125,-0.0893 0.12455,-0.034 0.34329,-0.0766 0.44643,-0.13393 0.43522,-0.24179 -0.17797,-0.056 0.3125,-0.17857 0.11288,-0.0282 0.20576,-0.0466 0.3125,-0.0893 0.0309,-0.0124 0.0577,-0.0341 0.0893,-0.0447 0.0141,-0.005 0.0446,-0.0149 0.0446,0 0,0.021 -0.0258,0.0352 -0.0446,0.0447 -0.28501,0.114 -0.15154,0.0534 -0.40179,0.17857 -0.18699,0.0935 -0.42223,0.22279 -0.625,0.26785 -0.14599,0.0324 -0.29891,0.0201 -0.44643,0.0446 -0.12104,0.0202 -0.23527,0.0749 -0.35714,0.0893 -0.13301,0.0157 -0.26812,-0.008 -0.40179,0 -0.10502,0.007 -0.20771,0.0351 -0.3125,0.0447 -0.10374,0.009 -0.20833,0 -0.3125,0 -0.0149,0 0.0298,0 0.0447,0 0.13634,0 0.061,0.009 0.22321,-0.0447 0.13909,-0.0464 0.19553,-0.0713 0.35714,-0.0893 0.0592,-0.007 0.11905,0 0.17857,0"
       id="path4503"
       inkscape:connector-curvature="0" />
    <path
       style="fill:none;stroke:#000000;stroke-width:1px;stroke-linecap:butt;stroke-linejoin:miter;stroke-opacity:1"
       d="m 358.16964,537.31754 c -0.16369,0 -0.32738,0 -0.49107,0 -0.14881,0 -0.29762,0 -0.44643,0 -0.0298,0 -0.0595,0 -0.0893,0 -0.0298,0 -0.0627,0.0133 -0.0893,0 -0.0133,-0.007 0,-0.0298 0,-0.0446 0,-0.0298 -0.0178,-0.0655 0,-0.0893 0.0322,-0.0429 0.092,-0.0558 0.13393,-0.0893 0.0329,-0.0263 0.0532,-0.0676 0.0893,-0.0893 0.0403,-0.0242 0.0899,-0.0281 0.13393,-0.0446 0.075,-0.0281 0.15153,-0.0534 0.22321,-0.0893 0.048,-0.024 0.0846,-0.0682 0.13393,-0.0893 0.0564,-0.0242 0.11957,-0.0278 0.17857,-0.0446 0.0452,-0.0129 0.0875,-0.0369 0.13393,-0.0446 0.50777,-0.0846 -0.15984,0.083 0.22321,-0.0446 0.0141,-0.005 0.0298,0 0.0447,0 0.0149,0 0.0446,-0.0149 0.0446,0 0,0.0149 -0.0298,0 -0.0446,0 -0.0149,0 -0.0298,0 -0.0447,0 -0.0556,0 -0.17709,0 -0.22321,0 -0.0446,0 -0.0904,-0.01 -0.13393,0 -0.10595,0.0235 -0.56141,0.19936 -0.625,0.22321 -0.11905,0.0446 -0.2381,0.0893 -0.35714,0.13393 -0.13393,0.0595 -0.26519,0.12545 -0.40179,0.17857 -0.13157,0.0512 -0.27405,0.0738 -0.40178,0.13393 -0.12703,0.0598 -0.23328,0.15715 -0.35715,0.22321 -0.19245,0.10264 -0.32844,0.15266 -0.53571,0.17857 -0.0443,0.006 -0.0916,0.0141 -0.13393,0 -0.0141,-0.005 -0.0105,-0.0341 0,-0.0446 0.0105,-0.0105 0.0313,0.007 0.0446,0 0.048,-0.024 0.0859,-0.0653 0.13393,-0.0893 0.43116,-0.21558 -0.0833,0.0575 0.22322,-0.0447 0.0631,-0.021 0.1174,-0.0631 0.17857,-0.0893 0.0433,-0.0185 0.0909,-0.0255 0.13393,-0.0446 0.0912,-0.0405 0.17571,-0.0955 0.26785,-0.13392 0.0869,-0.0362 0.17857,-0.0595 0.26786,-0.0893 0.11905,-0.0446 0.24028,-0.0838 0.35714,-0.13393 0.89035,-0.38158 -0.47361,0.14412 0.625,-0.26786 0.27976,-0.1049 0.40385,-0.14518 0.66965,-0.26785 0.0906,-0.0418 0.17722,-0.0921 0.26785,-0.13393 0.1029,-0.0475 0.21301,-0.0797 0.3125,-0.13393 0.0665,-0.0362 0.36166,-0.28575 0.40179,-0.3125 0.0554,-0.0369 0.12079,-0.0563 0.17857,-0.0893 0.17497,-0.1 0.30544,-0.26079 0.44643,-0.40178 0.0446,-0.0446 0.0989,-0.0814 0.13393,-0.13393 0.008,-0.0124 0,-0.0595 0,-0.0446 0,0.10416 0,0.20833 0,0.3125 0,0.0595 0.006,0.11934 0,0.17857 -0.0306,0.30596 -0.0391,0.19524 -0.0893,0.44643 -0.0177,0.0888 -0.0186,0.18115 -0.0446,0.26785 -0.0191,0.0637 -0.0623,0.11776 -0.0893,0.17858 -0.0325,0.0732 -0.0611,0.14818 -0.0893,0.22321 -0.0165,0.0441 -0.0145,0.0978 -0.0446,0.13393 -0.0476,0.0572 -0.12141,0.0863 -0.17857,0.13393 -0.22839,0.19033 0.0397,0.009 -0.17857,0.13393 -0.19721,0.11269 -0.20932,0.13767 -0.40178,0.22321 -0.66168,0.26467 0.16127,-0.0717 -0.40179,0.17857 -0.0732,0.0326 -0.14999,0.0567 -0.22321,0.0893 -0.46932,0.20858 0.1408,-0.0211 -0.40179,0.13393 -0.032,0.009 -0.0577,0.0341 -0.0893,0.0446 -0.0492,0.0164 -0.14715,-0.0132 -0.17857,-0.0446 -0.0105,-0.0105 0.008,-0.0323 0,-0.0447 -0.0233,-0.035 -0.0595,-0.0595 -0.0893,-0.0893 -0.0149,-0.0595 -0.0205,-0.12218 -0.0446,-0.17857 -0.0728,-0.16995 -0.0826,-0.0952 -0.17857,-0.22322 -0.02,-0.0266 -0.0341,-0.0577 -0.0446,-0.0893 -0.005,-0.0141 0.0149,-0.0447 0,-0.0447 -0.0342,0 -0.089,0.13361 -0.0893,0.13393 -0.15318,0.19149 -0.10676,0.0946 -0.3125,0.22322 -0.007,0.004 -0.35381,0.26619 -0.35714,0.26785 -0.0842,0.0421 -0.17941,0.0571 -0.26786,0.0893 -0.0753,0.0274 -0.14498,0.0719 -0.22321,0.0893 -0.0581,0.0129 -0.11986,-0.01 -0.17857,0 -0.0328,0.005 -0.057,0.0366 -0.0893,0.0446 -0.0289,0.007 -0.0595,0 -0.0893,0 -0.0149,0 -0.0341,0.0105 -0.0446,0 -0.0105,-0.0105 -0.0149,-0.0446 0,-0.0446 0.0149,0 0,0.0298 0,0.0446"
       id="path4505"
       inkscape:connector-curvature="0" />
    <path
       style="fill:none;stroke:#000000;stroke-width:1px;stroke-linecap:butt;stroke-linejoin:miter;stroke-opacity:1"
       d="m 348.34822,541.60325 c -0.21267,0.0664 -0.15899,0.13894 -0.35715,0.17857 -0.0292,0.006 -0.0627,-0.0133 -0.0893,0 -0.0376,0.0188 -0.0556,0.064 -0.0893,0.0893 -0.078,0.0585 -0.13318,0.0443 -0.22321,0.0893 -0.048,0.024 -0.0879,0.0617 -0.13393,0.0893 -0.0285,0.0171 -0.0627,0.0247 -0.0893,0.0446 -0.0337,0.0253 -0.0516,0.0705 -0.0893,0.0893 -0.14146,0.0707 -0.0416,-0.0924 -0.17857,0.0446 -0.0105,0.0105 -0.0133,0.038 0,0.0447 0.0266,0.0133 0.0595,0 0.0893,0 0.10417,0 0.20857,0.007 0.3125,0 0.57358,-0.0382 0.16158,-0.0434 0.80357,-0.17858 0.13186,-0.0278 0.26796,-0.0289 0.40179,-0.0446 0.11915,-0.014 0.23837,-0.0277 0.35714,-0.0446 0.0896,-0.0128 0.17789,-0.0347 0.26786,-0.0446 0.0444,-0.005 0.0893,0 0.13393,0 0.0149,0 0.0446,-0.0149 0.0446,0 0,0.0149 -0.0298,0 -0.0446,0 -0.11905,0 -0.23851,-0.01 -0.35715,0 -0.10486,0.009 -0.20819,0.0307 -0.3125,0.0446 -0.11892,0.0159 -0.23799,0.0306 -0.35714,0.0446 -0.44523,0.0524 -0.33555,0.0328 -0.75893,0.0893 -0.1043,0.0139 -0.20758,0.0366 -0.3125,0.0446 -0.089,0.007 -0.17857,0 -0.26785,0 -0.13393,0 -0.26786,0 -0.40179,0 -0.0149,0 0.0298,0 0.0446,0 0.0298,0 0.0604,-0.007 0.0893,0 0.0457,0.0114 0.0883,0.0332 0.13393,0.0446 0.0144,0.004 0.0313,-0.007 0.0446,0 0.0188,0.009 0.0258,0.0352 0.0446,0.0447 0.0133,0.007 0.0341,-0.0105 0.0447,0 0.0105,0.0105 0.0105,0.0341 0,0.0446 -0.0105,0.0105 -0.0341,-0.0105 -0.0447,0 -0.0105,0.0105 0.0105,0.0341 0,0.0446 -0.0235,0.0235 -0.0577,0.0341 -0.0893,0.0446 -0.0141,0.005 -0.0298,0 -0.0446,0 -0.0298,0 -0.0682,0.021 -0.0893,0 -0.0149,-0.0149 0.0258,-0.0352 0.0446,-0.0446 0.0421,-0.021 0.0907,-0.0261 0.13393,-0.0446 0.0612,-0.0262 0.11776,-0.0623 0.17857,-0.0893 0.0732,-0.0325 0.14999,-0.0567 0.22322,-0.0893 0.0608,-0.027 0.11625,-0.0659 0.17857,-0.0893 0.4217,-0.15814 0.009,0.04 0.26785,-0.0893"
       id="path4507"
       inkscape:connector-curvature="0" />
  </g>
</svg>
